<mxfile host="app.diagrams.net" modified="2024-04-09T14:19:18.917Z" agent="Mozilla/5.0 (Macintosh; Intel Mac OS X 10_15_7) AppleWebKit/537.36 (KHTML, like Gecko) Chrome/123.0.0.0 Safari/537.36" version="24.2.3" etag="yyjq-cKtjyrsf6TNBAIk" type="github">
  <diagram name="Page-1" id="7FD69ggWFxrK3FnwEj5A">
    <mxGraphModel>
      <root>
        <mxCell id="0" />
        <mxCell id="1" parent="0" />
      </root>
    </mxGraphModel>
  </diagram>
</mxfile>
